<svg width="145" height="121" viewBox="0 0 145 121" fill="none" xmlns="http://www.w3.org/2000/svg">
<g filter="url(#filter0_d_1_1622)">
<path d="M72.293 113C99.3473 113 121.279 91.0681 121.279 64.0138C121.279 36.9596 99.3473 15.0277 72.293 15.0277C45.2387 15.0277 23.3069 36.9596 23.3069 64.0138C23.3069 91.0681 45.2387 113 72.293 113Z" fill="#CE6560"/>
<path d="M87.779 35.2017C87.779 43.7567 80.8422 50.6935 72.2931 50.6935C63.7441 50.6935 56.8073 43.7567 56.8073 35.2017C56.8073 34.1011 56.9203 33.0302 57.1404 31.9951C61.3346 34.0119 66.5878 35.2017 72.2931 35.2017C77.9985 35.2017 83.2517 34.0119 87.4459 31.9951C87.666 33.0302 87.779 34.1011 87.779 35.2017Z" fill="#040000"/>
<path d="M94.0137 29.8057C102.244 29.8057 108.917 23.1335 108.917 14.9029C108.917 6.67224 102.244 0 94.0137 0C85.7831 0 79.1108 6.67224 79.1108 14.9029C79.1108 23.1335 85.7831 29.8057 94.0137 29.8057Z" fill="#CE6560"/>
<path d="M50.2392 29.8057C58.4698 29.8057 65.142 23.1335 65.142 14.9029C65.142 6.67224 58.4698 0 50.2392 0C42.0085 0 35.3363 6.67224 35.3363 14.9029C35.3363 23.1335 42.0085 29.8057 50.2392 29.8057Z" fill="#CE6560"/>
<path d="M83.0552 15.0337C83.0552 8.98336 87.9633 4.07523 94.0137 4.07523C100.064 4.07523 104.978 8.98336 104.978 15.0337C104.978 18.6925 103.187 21.9289 100.433 23.9219C98.6303 25.2308 96.4113 25.9982 94.0137 25.9982C88.3679 25.9982 83.7215 21.7266 83.1266 16.2355C83.079 15.8428 83.0552 15.4383 83.0552 15.0337ZM50.2392 25.9982C47.9189 25.9982 45.7594 25.2724 43.9865 24.035C41.1428 22.0598 39.2806 18.7639 39.2806 15.0337C39.2806 8.98336 44.1888 4.07523 50.2392 4.07523C56.2895 4.07523 61.2036 8.98336 61.2036 15.0337C61.2036 15.468 61.1798 15.8964 61.1263 16.3128C60.4957 21.7683 55.8612 25.9982 50.2392 25.9982Z" fill="#CE6560"/>
<path d="M61.1264 16.3128C60.4957 21.7683 55.8613 25.9982 50.2392 25.9982C47.919 25.9982 45.7594 25.2724 43.9866 24.035C49.0672 20.4297 54.8677 17.7704 61.1264 16.3128Z" fill="#CE6560"/>
<path d="M100.433 23.922C98.6303 25.2308 96.4113 25.9982 94.0137 25.9982C88.3679 25.9982 83.7215 21.7267 83.1266 16.2355C89.4447 17.6634 95.3047 20.3108 100.433 23.922Z" fill="#CE6560"/>
<path d="M104.978 15.0337C104.978 18.6925 103.187 21.9289 100.433 23.9219C98.6302 25.2308 96.4111 25.9982 94.0136 25.9982C88.3677 25.9982 83.7214 21.7266 83.1264 16.2355C83.0788 15.8428 83.0551 15.4383 83.0551 15.0337C83.0551 8.98336 87.9632 4.07523 94.0136 4.07523C100.064 4.07523 104.978 8.98336 104.978 15.0337Z" fill="white"/>
<path d="M61.2036 15.0337C61.2036 15.468 61.1798 15.8964 61.1263 16.3128C60.4957 21.7683 55.8612 25.9982 50.2392 25.9982C47.9189 25.9982 45.7594 25.2724 43.9865 24.035C41.1428 22.0598 39.2806 18.7639 39.2806 15.0337C39.2806 8.98336 44.1888 4.07523 50.2392 4.07523C56.2895 4.07523 61.2036 8.98336 61.2036 15.0337Z" fill="white"/>
<path d="M45.4023 15.8785C46.7232 15.8785 47.7939 14.8078 47.7939 13.4869C47.7939 12.1661 46.7232 11.0954 45.4023 11.0954C44.0815 11.0954 43.0107 12.1661 43.0107 13.4869C43.0107 14.8078 44.0815 15.8785 45.4023 15.8785Z" fill="#231815"/>
<path d="M91.6222 15.8785C92.943 15.8785 94.0138 14.8078 94.0138 13.4869C94.0138 12.1661 92.943 11.0954 91.6222 11.0954C90.3013 11.0954 89.2306 12.1661 89.2306 13.4869C89.2306 14.8078 90.3013 15.8785 91.6222 15.8785Z" fill="#231815"/>
<path d="M26.3531 24.1658C17.8219 19.2458 7.35713 24.9154 7.35713 24.9154C5.72704 25.8019 5.70919 27.2832 7.31549 28.2054L32.3678 42.6561C33.9741 43.5842 35.2472 42.8227 35.1996 40.9665C35.1996 40.9665 34.8843 29.0859 26.3531 24.1658Z" fill="#CE6560"/>
<path d="M17.78 46.3387C27.4119 48.3972 35.6218 39.7886 35.6218 39.7886C36.9009 38.4441 36.4666 37.0281 34.6521 36.6414L6.35749 30.597C4.54297 30.2103 3.56729 31.3228 4.18601 33.0719C4.18601 33.0719 8.14821 44.2803 17.78 46.3387Z" fill="#CE6560"/>
<path d="M118.233 24.1658C126.764 19.2458 137.229 24.9154 137.229 24.9154C138.859 25.8019 138.877 27.2832 137.271 28.2054L112.219 42.6561C110.612 43.5842 109.339 42.8227 109.387 40.9665C109.387 40.9665 109.702 29.0859 118.233 24.1658Z" fill="#CE6560"/>
<path d="M126.806 46.3387C117.174 48.3972 108.964 39.7886 108.964 39.7886C107.685 38.4441 108.119 37.0281 109.934 36.6414L138.223 30.597C140.037 30.2103 141.013 31.3228 140.394 33.0719C140.394 33.0719 136.432 44.2803 126.8 46.3387H126.806Z" fill="#CE6560"/>
</g>
<defs>
<filter id="filter0_d_1_1622" x="0" y="0" width="144.58" height="121" filterUnits="userSpaceOnUse" color-interpolation-filters="sRGB">
<feFlood flood-opacity="0" result="BackgroundImageFix"/>
<feColorMatrix in="SourceAlpha" type="matrix" values="0 0 0 0 0 0 0 0 0 0 0 0 0 0 0 0 0 0 127 0" result="hardAlpha"/>
<feOffset dy="4"/>
<feGaussianBlur stdDeviation="2"/>
<feComposite in2="hardAlpha" operator="out"/>
<feColorMatrix type="matrix" values="0 0 0 0 0 0 0 0 0 0 0 0 0 0 0 0 0 0 0.2 0"/>
<feBlend mode="normal" in2="BackgroundImageFix" result="effect1_dropShadow_1_1622"/>
<feBlend mode="normal" in="SourceGraphic" in2="effect1_dropShadow_1_1622" result="shape"/>
</filter>
</defs>
</svg>
